<?xml version="1.0" encoding="utf-8"?>
<!-- Generator: Adobe Illustrator 24.1.2, SVG Export Plug-In . SVG Version: 6.00 Build 0)  -->
<svg version="1.1" id="Ebene_1" xmlns="http://www.w3.org/2000/svg" xmlns:xlink="http://www.w3.org/1999/xlink" x="0px" y="0px"
	 viewBox="0 0 24 24" style="enable-background:new 0 0 24 24;" xml:space="preserve">
<style type="text/css">
	.st0{fill:none;}
	.st1{fill:#FFFFFF;}
</style>
<path class="st0" d="M0,0h24v24H0V0z"/>
<path class="st1" d="M21.1,12c0-1.3,1-2.3,2.3-2.3V5.1c0-1.3-1-2.3-2.3-2.3H2.9c-1.3,0-2.3,1-2.3,2.3v4.6c1.3,0,2.3,1,2.3,2.3
	s-1,2.3-2.3,2.3v4.6c0,1.3,1,2.3,2.3,2.3h18.3c1.3,0,2.3-1,2.3-2.3v-4.6C22.2,14.3,21.1,13.3,21.1,12z M16.1,17.5L12,14.9l-4.1,2.6
	l1.2-4.7L5.4,9.7l4.8-0.3L12,4.9l1.8,4.5l4.8,0.3l-3.8,3.1C14.8,12.8,16.1,17.5,16.1,17.5z"/>
</svg>
